# xmcd
#
# Track frame offsets:
#	150
#	19640
#	41902
#	63090
#	80130
#	100755
#	122820
#	129422
#	133950
#	140077
#	144817
#	149537
#	155847
#	159337
#	160782
#	161865
#	163825
#	165052
#	166835
#	167800
#	169550
#	171167
#	173122
#	174395
#	175922
#
# Disc length: 2358 seconds
#
# Revision: 1
# Processed by: cddbd v1.5.1PL0 Copyright (c) Steve Scherf et al.
# Submitted via: CDex 1.50Beta5
#
DISCID=51093419
DTITLE=Various Artist - お嬢様特急エクスプレスオリジナルサウンドトラック&ヴォーカルコレクション [CD2]
DYEAR=1900
DGENRE=Game
TTITLE0=いつも側にいて
TTITLE1=素顔のままで
TTITLE2=太陽をバックに
TTITLE3=Love And Hate
TTITLE4=Luckyはコイントスで
TTITLE5=I`m waiting tonight
TTITLE6=〜キャラクター自己紹介〜 松浦愛
TTITLE7=〜キャラクター自己紹介〜 鹿島静花
TTITLE8=〜キャラクター自己紹介〜 エレナ・ユーリ・ノーディス
TTITLE9=〜キャラクター自己紹介〜 伊東小麦
TTITLE10=〜キャラクター自己紹介〜 加古川秋子
TTITLE11=〜キャラクター自己紹介〜 岩泉風音
TTITLE12=〜キャラクター自己紹介〜 七尾つばさ
TTITLE13=千歳さとみ「おはよう編」
TTITLE14=千歳さとみ「留守電編」
TTITLE15=山口星奈「おはよう編」
TTITLE16=山口星奈「留守電編」
TTITLE17=北上緑「おはよう編」
TTITLE18=北上緑「留守電編」
TTITLE19=津山菜々子「おはよう編」
TTITLE20=津山菜々子「留守電編」
TTITLE21=桜井真美「おはよう編」
TTITLE22=桜井真美「留守電編」
TTITLE23=飯山みらい「おはよう編」
TTITLE24=飯山みらい「留守電編」
EXTD=
EXTT0=
EXTT1=
EXTT2=
EXTT3=
EXTT4=
EXTT5=
EXTT6=
EXTT7=
EXTT8=
EXTT9=
EXTT10=
EXTT11=
EXTT12=
EXTT13=
EXTT14=
EXTT15=
EXTT16=
EXTT17=
EXTT18=
EXTT19=
EXTT20=
EXTT21=
EXTT22=
EXTT23=
EXTT24=
PLAYORDER=
